<svg xmlns="http://www.w3.org/2000/svg" xmlns:xlink="http://www.w3.org/1999/xlink" contentStyleType="text/css" data-diagram-type="DESCRIPTION" height="429px" preserveAspectRatio="none" style="width:888px;height:429px;background:#FFFFFF;" version="1.1" viewBox="0 0 888 429" width="888px" zoomAndPan="magnify"><defs/><g><!--cluster Ki-Pipeline VeCo--><g class="cluster" data-entity="Ki-Pipeline VeCo" data-source-line="1" data-uid="ent0002" id="cluster_Ki-Pipeline VeCo"><path d="M8.5,6 L139.6904,6 A3.75,3.75 0 0 1 142.1904,8.5 L149.1904,28.2969 L878.5,28.2969 A2.5,2.5 0 0 1 881,30.7969 L881,419.69 A2.5,2.5 0 0 1 878.5,422.19 L8.5,422.19 A2.5,2.5 0 0 1 6,419.69 L6,8.5 A2.5,2.5 0 0 1 8.5,6" fill="none" style="stroke:#000000;stroke-width:1.5;"/><line style="stroke:#000000;stroke-width:1.5;" x1="6" x2="149.1904" y1="28.2969" y2="28.2969"/><text fill="#000000" font-family="sans-serif" font-size="14" font-weight="bold" lengthAdjust="spacing" textLength="130.1904" x="10" y="20.9951">Ki-Pipeline VeCo</text></g><!--entity User Input--><g class="entity" data-entity="User Input" data-source-line="2" data-uid="ent0003" id="entity_User Input"><rect fill="#F1F1F1" height="46.2969" rx="2.5" ry="2.5" style="stroke:#181818;stroke-width:0.5;" width="112.6113" x="412.69" y="41"/><rect fill="#F1F1F1" height="10" style="stroke:#181818;stroke-width:0.5;" width="15" x="505.3013" y="46"/><rect fill="#F1F1F1" height="2" style="stroke:#181818;stroke-width:0.5;" width="4" x="503.3013" y="48"/><rect fill="#F1F1F1" height="2" style="stroke:#181818;stroke-width:0.5;" width="4" x="503.3013" y="52"/><text fill="#000000" font-family="sans-serif" font-size="14" lengthAdjust="spacing" textLength="72.6113" x="427.69" y="73.9951">User Input</text></g><!--entity Vectorize--><g class="entity" data-entity="Vectorize" data-source-line="2" data-uid="ent0004" id="entity_Vectorize"><rect fill="#F1F1F1" height="46.2969" rx="2.5" ry="2.5" style="stroke:#181818;stroke-width:0.5;" width="105.5498" x="416.23" y="147.3"/><rect fill="#F1F1F1" height="10" style="stroke:#181818;stroke-width:0.5;" width="15" x="501.7798" y="152.3"/><rect fill="#F1F1F1" height="2" style="stroke:#181818;stroke-width:0.5;" width="4" x="499.7798" y="154.3"/><rect fill="#F1F1F1" height="2" style="stroke:#181818;stroke-width:0.5;" width="4" x="499.7798" y="158.3"/><text fill="#000000" font-family="sans-serif" font-size="14" lengthAdjust="spacing" textLength="65.5498" x="431.23" y="180.2951">Vectorize</text></g><!--entity Text Extractor--><g class="entity" data-entity="Text Extractor" data-source-line="4" data-uid="ent0006" id="entity_Text Extractor"><rect fill="#F1F1F1" height="46.2969" rx="2.5" ry="2.5" style="stroke:#181818;stroke-width:0.5;" width="139.8525" x="22.07" y="253.6"/><rect fill="#F1F1F1" height="10" style="stroke:#181818;stroke-width:0.5;" width="15" x="141.9225" y="258.6"/><rect fill="#F1F1F1" height="2" style="stroke:#181818;stroke-width:0.5;" width="4" x="139.9225" y="260.6"/><rect fill="#F1F1F1" height="2" style="stroke:#181818;stroke-width:0.5;" width="4" x="139.9225" y="264.6"/><text fill="#000000" font-family="sans-serif" font-size="14" lengthAdjust="spacing" textLength="99.8525" x="37.07" y="286.5951">Text Extractor</text></g><!--entity PDF | Word | PPTX | Image | Audio | Video--><g class="entity" data-entity="PDF . Word . PPTX . Image . Audio . Video" data-source-line="5" data-uid="ent0008" id="entity_PDF . Word . PPTX . Image . Audio . Video"><rect fill="#F1F1F1" height="46.2969" rx="2.5" ry="2.5" style="stroke:#181818;stroke-width:0.5;" width="330.6094" x="21.7" y="359.89"/><rect fill="#F1F1F1" height="10" style="stroke:#181818;stroke-width:0.5;" width="15" x="332.3094" y="364.89"/><rect fill="#F1F1F1" height="2" style="stroke:#181818;stroke-width:0.5;" width="4" x="330.3094" y="366.89"/><rect fill="#F1F1F1" height="2" style="stroke:#181818;stroke-width:0.5;" width="4" x="330.3094" y="370.89"/><text fill="#000000" font-family="sans-serif" font-size="14" lengthAdjust="spacing" textLength="290.6094" x="36.7" y="392.8851">PDF | Word | PPTX | Image | Audio | Video</text></g><!--entity LLM Compress (Gemma/Ollama)--><g class="entity" data-entity="LLM Compress .Gemma.Ollama." data-source-line="7" data-uid="ent0010" id="entity_LLM Compress .Gemma.Ollama."><rect fill="#F1F1F1" height="46.2969" rx="2.5" ry="2.5" style="stroke:#181818;stroke-width:0.5;" width="266.9531" x="196.52" y="253.6"/><rect fill="#F1F1F1" height="10" style="stroke:#181818;stroke-width:0.5;" width="15" x="443.4731" y="258.6"/><rect fill="#F1F1F1" height="2" style="stroke:#181818;stroke-width:0.5;" width="4" x="441.4731" y="260.6"/><rect fill="#F1F1F1" height="2" style="stroke:#181818;stroke-width:0.5;" width="4" x="441.4731" y="264.6"/><text fill="#000000" font-family="sans-serif" font-size="14" lengthAdjust="spacing" textLength="226.9531" x="211.52" y="286.5951">LLM Compress (Gemma/Ollama)</text></g><!--entity Embedding & FAISS Index--><g class="entity" data-entity="Embedding . FAISS Index" data-source-line="9" data-uid="ent0012" id="entity_Embedding . FAISS Index"><rect fill="#F1F1F1" height="46.2969" rx="2.5" ry="2.5" style="stroke:#181818;stroke-width:0.5;" width="221.9932" x="498" y="253.6"/><rect fill="#F1F1F1" height="10" style="stroke:#181818;stroke-width:0.5;" width="15" x="699.9932" y="258.6"/><rect fill="#F1F1F1" height="2" style="stroke:#181818;stroke-width:0.5;" width="4" x="697.9932" y="260.6"/><rect fill="#F1F1F1" height="2" style="stroke:#181818;stroke-width:0.5;" width="4" x="697.9932" y="264.6"/><text fill="#000000" font-family="sans-serif" font-size="14" lengthAdjust="spacing" textLength="181.9932" x="513" y="286.5951">Embedding &amp; FAISS Index</text></g><!--entity SentenceTransformer--><g class="entity" data-entity="SentenceTransformer" data-source-line="10" data-uid="ent0014" id="entity_SentenceTransformer"><rect fill="#F1F1F1" height="46.2969" rx="2.5" ry="2.5" style="stroke:#181818;stroke-width:0.5;" width="191.9697" x="513.02" y="359.89"/><rect fill="#F1F1F1" height="10" style="stroke:#181818;stroke-width:0.5;" width="15" x="684.9897" y="364.89"/><rect fill="#F1F1F1" height="2" style="stroke:#181818;stroke-width:0.5;" width="4" x="682.9897" y="366.89"/><rect fill="#F1F1F1" height="2" style="stroke:#181818;stroke-width:0.5;" width="4" x="682.9897" y="370.89"/><text fill="#000000" font-family="sans-serif" font-size="14" lengthAdjust="spacing" textLength="151.9697" x="528.02" y="392.8851">SentenceTransformer</text></g><!--entity OutputDB--><g class="entity" data-entity="OutputDB" data-source-line="12" data-uid="ent0016" id="entity_OutputDB"><rect fill="#F1F1F1" height="46.2969" rx="2.5" ry="2.5" style="stroke:#181818;stroke-width:0.5;" width="109.0156" x="755.49" y="253.6"/><rect fill="#F1F1F1" height="10" style="stroke:#181818;stroke-width:0.5;" width="15" x="844.5056" y="258.6"/><rect fill="#F1F1F1" height="2" style="stroke:#181818;stroke-width:0.5;" width="4" x="842.5056" y="260.6"/><rect fill="#F1F1F1" height="2" style="stroke:#181818;stroke-width:0.5;" width="4" x="842.5056" y="264.6"/><text fill="#000000" font-family="sans-serif" font-size="14" lengthAdjust="spacing" textLength="69.0156" x="770.49" y="286.5951">OutputDB</text></g><!--link User Input to Vectorize--><g class="link" data-entity-1="User Input" data-entity-2="Vectorize" data-source-line="2" data-uid="lnk5" id="link_User Input_Vectorize"><path d="M469,87.78 C469,105.28 469,123.38 469,140.86" fill="none" id="User Input-to-Vectorize" style="stroke:#181818;stroke-width:1;"/><polygon fill="#181818" points="469,146.86,473,137.86,469,141.86,465,137.86,469,146.86" style="stroke:#181818;stroke-width:1;"/></g><!--link Vectorize to Text Extractor--><g class="link" data-entity-1="Vectorize" data-entity-2="Text Extractor" data-source-line="4" data-uid="lnk7" id="link_Vectorize_Text Extractor"><path d="M415.78,186.17 C349.41,204.53 241.533,234.3808 168.053,254.7008" fill="none" id="Vectorize-to-Text Extractor" style="stroke:#181818;stroke-width:1;"/><polygon fill="#181818" points="162.27,256.3,172.0106,257.7565,167.0891,254.9673,169.8783,250.0459,162.27,256.3" style="stroke:#181818;stroke-width:1;"/></g><!--link Text Extractor to PDF | Word | PPTX | Image | Audio | Video--><g class="link" data-entity-1="Text Extractor" data-entity-2="PDF . Word . PPTX . Image . Audio . Video" data-source-line="5" data-uid="lnk9" id="link_Text Extractor_PDF . Word . PPTX . Image . Audio . Video"><path d="M112.61,300.38 C128.55,317.87 146.4585,337.5353 162.3885,355.0153" fill="none" id="Text Extractor-to-PDF | Word | PPTX | Image | Audio | Video" style="stroke:#181818;stroke-width:1;"/><polygon fill="#181818" points="166.43,359.45,163.3243,350.1036,163.0621,355.7544,157.4113,355.4923,166.43,359.45" style="stroke:#181818;stroke-width:1;"/></g><!--link Vectorize to LLM Compress (Gemma/Ollama)--><g class="link" data-entity-1="Vectorize" data-entity-2="LLM Compress .Gemma.Ollama." data-source-line="7" data-uid="lnk11" id="link_Vectorize_LLM Compress .Gemma.Ollama."><path d="M438.84,194.08 C415.52,211.57 388.1995,232.0793 364.8995,249.5593" fill="none" id="Vectorize-to-LLM Compress (Gemma/Ollama)" style="stroke:#181818;stroke-width:1;"/><polygon fill="#181818" points="360.1,253.16,369.6997,250.9587,364.0996,250.1595,364.8988,244.5593,360.1,253.16" style="stroke:#181818;stroke-width:1;"/></g><!--link Vectorize to Embedding & FAISS Index--><g class="link" data-entity-1="Vectorize" data-entity-2="Embedding . FAISS Index" data-source-line="9" data-uid="lnk13" id="link_Vectorize_Embedding . FAISS Index"><path d="M499.38,194.08 C522.86,211.57 550.398,232.0961 573.868,249.5761" fill="none" id="Vectorize-to-Embedding &amp; FAISS Index" style="stroke:#181818;stroke-width:1;"/><polygon fill="#181818" points="578.68,253.16,573.8512,244.5761,574.67,250.1734,569.0727,250.9922,578.68,253.16" style="stroke:#181818;stroke-width:1;"/></g><!--link Embedding & FAISS Index to SentenceTransformer--><g class="link" data-entity-1="Embedding . FAISS Index" data-entity-2="SentenceTransformer" data-source-line="10" data-uid="lnk15" id="link_Embedding . FAISS Index_SentenceTransformer"><path d="M609,300.38 C609,317.87 609,335.97 609,353.45" fill="none" id="Embedding &amp; FAISS Index-to-SentenceTransformer" style="stroke:#181818;stroke-width:1;"/><polygon fill="#181818" points="609,359.45,613,350.45,609,354.45,605,350.45,609,359.45" style="stroke:#181818;stroke-width:1;"/></g><!--link Vectorize to OutputDB--><g class="link" data-entity-1="Vectorize" data-entity-2="OutputDB" data-source-line="12" data-uid="lnk17" id="link_Vectorize_OutputDB"><path d="M521.91,187.63 C585.32,207.03 685.3224,237.615 749.5324,257.255" fill="none" id="Vectorize-to-OutputDB" style="stroke:#181818;stroke-width:1;"/><polygon fill="#181818" points="755.27,259.01,747.8336,252.5525,750.4887,257.5475,745.4936,260.2026,755.27,259.01" style="stroke:#181818;stroke-width:1;"/></g><!--SRC=[TL3B2i8m4BptAnOFeeVY7mY-AIeMMgiWFSHcb62Jb3I5ukFVJUr1a7eQTcU6cTs2PJTs1VNMmWz5WLmeK8APxj738phjInWAL57Pb7n_JAS4cTL6t95w3VyTMpf6RMbHMyEQVTf8VbQjBfmlwKa7RRY3C8oF3WBPD7dIfE92Eqm4X-wEsMosDDEoC2XB6gmW9Hljyfn9DkmsBEGPd0jrfJuj9q4KkQCuwa_1VrphZA0iL8ROC5LUj94mtH6xohetpQUfzte3]--></g></svg>