<svg xmlns="http://www.w3.org/2000/svg" xmlns:xlink="http://www.w3.org/1999/xlink" contentStyleType="text/css" data-diagram-type="CLASS" height="427px" preserveAspectRatio="none" style="width:382px;height:427px;background:#FFFFFF;" version="1.1" viewBox="0 0 382 427" width="382px" zoomAndPan="magnify"><defs/><g><!--class Vectorize--><g class="entity" data-entity="Vectorize" data-source-line="1" data-uid="ent0002" id="entity_Vectorize"><rect fill="#F1F1F1" height="406.5313" rx="2.5" ry="2.5" style="stroke:#181818;stroke-width:0.5;" width="361.6855" x="7" y="7"/><ellipse cx="150.8179" cy="23" fill="#ADD1B2" rx="11" ry="11" style="stroke:#181818;stroke-width:1;"/><path d="M153.7866,28.6406 Q153.2085,28.9375 152.5679,29.0781 Q151.9272,29.2344 151.2241,29.2344 Q148.7241,29.2344 147.396,27.5938 Q146.0835,25.9375 146.0835,22.8125 Q146.0835,19.6875 147.396,18.0313 Q148.7241,16.375 151.2241,16.375 Q151.9272,16.375 152.5679,16.5313 Q153.2241,16.6875 153.7866,16.9844 L153.7866,19.7031 Q153.1616,19.125 152.5679,18.8594 Q151.9741,18.5781 151.3491,18.5781 Q150.0054,18.5781 149.3179,19.6563 Q148.6304,20.7188 148.6304,22.8125 Q148.6304,24.9063 149.3179,25.9844 Q150.0054,27.0469 151.3491,27.0469 Q151.9741,27.0469 152.5679,26.7813 Q153.1616,26.5 153.7866,25.9219 L153.7866,28.6406 Z " fill="#000000"/><text fill="#000000" font-family="sans-serif" font-size="14" lengthAdjust="spacing" textLength="65.5498" x="171.3179" y="27.8467">Vectorize</text><line style="stroke:#181818;stroke-width:0.5;" x1="8" x2="367.6855" y1="39" y2="39"/><rect fill="none" height="6" style="stroke:#C82930;stroke-width:1;" width="6" x="15" y="49.6484"/><text fill="#000000" font-family="sans-serif" font-size="14" lengthAdjust="spacing" textLength="127.5586" x="27" y="55.9951">default_model: str</text><rect fill="none" height="6" style="stroke:#C82930;stroke-width:1;" width="6" x="15" y="65.9453"/><text fill="#000000" font-family="sans-serif" font-size="14" lengthAdjust="spacing" textLength="171.6777" x="27" y="72.292">whisper_model: Whisper</text><rect fill="none" height="6" style="stroke:#C82930;stroke-width:1;" width="6" x="15" y="82.2422"/><text fill="#000000" font-family="sans-serif" font-size="14" lengthAdjust="spacing" textLength="233.0303" x="27" y="88.5889">embedder: SentenceTransformer</text><rect fill="none" height="6" style="stroke:#C82930;stroke-width:1;" width="6" x="15" y="98.5391"/><text fill="#000000" font-family="sans-serif" font-size="14" lengthAdjust="spacing" textLength="169.9414" x="27" y="104.8857">faiss_index: IndexIDMap</text><rect fill="none" height="6" style="stroke:#C82930;stroke-width:1;" width="6" x="15" y="114.8359"/><text fill="#000000" font-family="sans-serif" font-size="14" lengthAdjust="spacing" textLength="97.5898" x="27" y="121.1826">outputdb: List</text><rect fill="none" height="6" style="stroke:#C82930;stroke-width:1;" width="6" x="15" y="131.1328"/><text fill="#000000" font-family="sans-serif" font-size="14" lengthAdjust="spacing" textLength="83.3574" x="27" y="137.4795">chunks: List</text><rect fill="none" height="6" style="stroke:#C82930;stroke-width:1;" width="6" x="15" y="147.4297"/><text fill="#000000" font-family="sans-serif" font-size="14" lengthAdjust="spacing" textLength="159.9268" x="27" y="153.7764">use_compression: bool</text><line style="stroke:#181818;stroke-width:0.5;" x1="8" x2="367.6855" y1="161.0781" y2="161.0781"/><ellipse cx="18" cy="174.7266" fill="#84BE84" rx="3" ry="3" style="stroke:#038048;stroke-width:1;"/><text fill="#000000" font-family="sans-serif" font-size="14" lengthAdjust="spacing" textLength="160.918" x="27" y="178.0732">__init__(default_model)</text><ellipse cx="18" cy="191.0234" fill="#84BE84" rx="3" ry="3" style="stroke:#038048;stroke-width:1;"/><text fill="#000000" font-family="sans-serif" font-size="14" lengthAdjust="spacing" textLength="163.9395" x="27" y="194.3701">check_ollama_models()</text><ellipse cx="18" cy="207.3203" fill="#84BE84" rx="3" ry="3" style="stroke:#038048;stroke-width:1;"/><text fill="#000000" font-family="sans-serif" font-size="14" lengthAdjust="spacing" textLength="186.0264" x="27" y="210.667">detect_input_type(file): str</text><ellipse cx="18" cy="223.6172" fill="#84BE84" rx="3" ry="3" style="stroke:#038048;stroke-width:1;"/><text fill="#000000" font-family="sans-serif" font-size="14" lengthAdjust="spacing" textLength="155.4766" x="27" y="226.9639">vectorize(file, kwargs)</text><ellipse cx="18" cy="239.9141" fill="#84BE84" rx="3" ry="3" style="stroke:#038048;stroke-width:1;"/><text fill="#000000" font-family="sans-serif" font-size="14" lengthAdjust="spacing" textLength="184.9121" x="27" y="243.2607">extract_text(file, type): str</text><ellipse cx="18" cy="256.2109" fill="#84BE84" rx="3" ry="3" style="stroke:#038048;stroke-width:1;"/><text fill="#000000" font-family="sans-serif" font-size="14" lengthAdjust="spacing" textLength="235.2314" x="27" y="259.5576">extract_text_from_image(file): str</text><ellipse cx="18" cy="272.5078" fill="#84BE84" rx="3" ry="3" style="stroke:#038048;stroke-width:1;"/><text fill="#000000" font-family="sans-serif" font-size="14" lengthAdjust="spacing" textLength="230.4189" x="27" y="275.8545">extract_text_from_audio(file): str</text><ellipse cx="18" cy="288.8047" fill="#84BE84" rx="3" ry="3" style="stroke:#038048;stroke-width:1;"/><text fill="#000000" font-family="sans-serif" font-size="14" lengthAdjust="spacing" textLength="229.8652" x="27" y="292.1514">extract_text_from_video(file): str</text><ellipse cx="18" cy="305.1016" fill="#84BE84" rx="3" ry="3" style="stroke:#038048;stroke-width:1;"/><text fill="#000000" font-family="sans-serif" font-size="14" lengthAdjust="spacing" textLength="255.2266" x="27" y="308.4482">build_compression_prompt(text): str</text><ellipse cx="18" cy="321.3984" fill="#84BE84" rx="3" ry="3" style="stroke:#038048;stroke-width:1;"/><text fill="#000000" font-family="sans-serif" font-size="14" lengthAdjust="spacing" textLength="194.7422" x="27" y="324.7451">ask_llm(prompt, model): str</text><ellipse cx="18" cy="337.6953" fill="#84BE84" rx="3" ry="3" style="stroke:#038048;stroke-width:1;"/><text fill="#000000" font-family="sans-serif" font-size="14" lengthAdjust="spacing" textLength="224.0273" x="27" y="341.042">vectorize_text(text): np.ndarray</text><ellipse cx="18" cy="353.9922" fill="#84BE84" rx="3" ry="3" style="stroke:#038048;stroke-width:1;"/><text fill="#000000" font-family="sans-serif" font-size="14" lengthAdjust="spacing" textLength="241.0215" x="27" y="357.3389">retrieve_context(query, top_k): str</text><ellipse cx="18" cy="370.2891" fill="#84BE84" rx="3" ry="3" style="stroke:#038048;stroke-width:1;"/><text fill="#000000" font-family="sans-serif" font-size="14" lengthAdjust="spacing" textLength="335.6855" x="27" y="373.6357">query_with_context(question, model, top_k): str</text><ellipse cx="18" cy="386.5859" fill="#84BE84" rx="3" ry="3" style="stroke:#038048;stroke-width:1;"/><text fill="#000000" font-family="sans-serif" font-size="14" lengthAdjust="spacing" textLength="203.2871" x="27" y="389.9326">save_database(path, format)</text><ellipse cx="18" cy="402.8828" fill="#84BE84" rx="3" ry="3" style="stroke:#038048;stroke-width:1;"/><text fill="#000000" font-family="sans-serif" font-size="14" lengthAdjust="spacing" textLength="200.4365" x="27" y="406.2295">load_database(path, format)</text></g><!--SRC=[XP9DJiGm38NtSueiEvg10tJDPYHOWM0PkOqxZPec8NRc1yJTIPEEL5GGgwRlVS-EtRO6YCGhjko2_a3nkH7YJYZi81gMerDeQa4SidpkDNaCD_cjl6OBnmQLmb2BPxICjiMN09Ow5yQPw40JIMqLNcfnc1w7XoVmsNEHVMJLrE9H4sUfxQCTQ254GjcwqGSaqixMed7ER9Ar4pALrInbzUFUs-orFRQ3TCR024MdgZWAEOsTegcrvAl7gjC6jxTnT-9qsqeszc8uGpXI2UE50wGqfyDiJoKMwIKXk-16gKSuhfgiCOXAk_-narQumfgeZLgkIVh4Ugwct8836gGnOrNSlIWB-sNqCk2SjlxUAWW1hXaAo47ZQVeiDcFl4SCrBS9vEIoAPLcUDVTBaZXTR-wypX2akWeO6Y2iF72_5zFF15psRnoel_olRm00]--></g></svg>