<svg xmlns="http://www.w3.org/2000/svg" xmlns:xlink="http://www.w3.org/1999/xlink" contentStyleType="text/css" data-diagram-type="DESCRIPTION" height="377px" preserveAspectRatio="none" style="width:418px;height:377px;background:#FFFFFF;" version="1.1" viewBox="0 0 418 377" width="418px" zoomAndPan="magnify"><defs/><g><!--cluster User--><g class="cluster" data-entity="User" data-source-line="1" data-uid="ent0002" id="cluster_User"><path d="M8.5,6 L45.6006,6 A3.75,3.75 0 0 1 48.1006,8.5 L55.1006,28.2969 L408.5,28.2969 A2.5,2.5 0 0 1 411,30.7969 L411,100.8 A2.5,2.5 0 0 1 408.5,103.3 L8.5,103.3 A2.5,2.5 0 0 1 6,100.8 L6,8.5 A2.5,2.5 0 0 1 8.5,6" fill="none" style="stroke:#000000;stroke-width:1.5;"/><line style="stroke:#000000;stroke-width:1.5;" x1="6" x2="55.1006" y1="28.2969" y2="28.2969"/><text fill="#000000" font-family="sans-serif" font-size="14" font-weight="bold" lengthAdjust="spacing" textLength="36.1006" x="10" y="20.9951">User</text></g><!--cluster VeCo--><g class="cluster" data-entity="VeCo" data-source-line="6" data-uid="ent0005" id="cluster_VeCo"><path d="M235.5,127.3 L276.7227,127.3 A3.75,3.75 0 0 1 279.2227,129.8 L286.2227,149.5969 L368.5,149.5969 A2.5,2.5 0 0 1 371,152.0969 L371,222.09 A2.5,2.5 0 0 1 368.5,224.59 L235.5,224.59 A2.5,2.5 0 0 1 233,222.09 L233,129.8 A2.5,2.5 0 0 1 235.5,127.3" fill="none" style="stroke:#000000;stroke-width:1.5;"/><line style="stroke:#000000;stroke-width:1.5;" x1="233" x2="286.2227" y1="149.5969" y2="149.5969"/><text fill="#000000" font-family="sans-serif" font-size="14" font-weight="bold" lengthAdjust="spacing" textLength="40.2227" x="237" y="142.2951">VeCo</text></g><!--cluster Vector Database--><g class="cluster" data-entity="Vector Database" data-source-line="10" data-uid="ent0008" id="cluster_Vector Database"><path d="M231,258.59 C231,248.59 304.5,248.59 304.5,248.59 C304.5,248.59 378,248.59 378,258.59 L378,350.89 C378,360.89 304.5,360.89 304.5,360.89 C304.5,360.89 231,360.89 231,350.89 L231,258.59" fill="none" style="stroke:#181818;stroke-width:1;"/><path d="M231,258.59 C231,268.59 304.5,268.59 304.5,268.59 C304.5,268.59 378,268.59 378,258.59" fill="none" style="stroke:#181818;stroke-width:1;"/><text fill="#000000" font-family="sans-serif" font-size="14" font-weight="bold" lengthAdjust="spacing" textLength="131.2227" x="238.8887" y="283.5851">Vector Database</text></g><!--cluster LLM-Host--><g class="cluster" data-entity="LLM-Host" data-source-line="14" data-uid="ent0011" id="cluster_LLM-Host"><path d="M29.5,127.3 L104.4443,127.3 A3.75,3.75 0 0 1 106.9443,129.8 L113.9443,149.5969 L204.5,149.5969 A2.5,2.5 0 0 1 207,152.0969 L207,358.39 A2.5,2.5 0 0 1 204.5,360.89 L29.5,360.89 A2.5,2.5 0 0 1 27,358.39 L27,129.8 A2.5,2.5 0 0 1 29.5,127.3" fill="none" style="stroke:#000000;stroke-width:1.5;"/><line style="stroke:#000000;stroke-width:1.5;" x1="27" x2="113.9443" y1="149.5969" y2="149.5969"/><text fill="#000000" font-family="sans-serif" font-size="14" font-weight="bold" lengthAdjust="spacing" textLength="73.9443" x="31" y="142.2951">LLM-Host</text></g><!--entity User Input (Files)--><g class="entity" data-entity="User Input .Files." data-source-line="2" data-uid="ent0003" id="entity_User Input .Files."><rect fill="#F1F1F1" height="46.2969" rx="2.5" ry="2.5" style="stroke:#181818;stroke-width:0.5;" width="159.7246" x="235.14" y="41"/><rect fill="#F1F1F1" height="10" style="stroke:#181818;stroke-width:0.5;" width="15" x="374.8646" y="46"/><rect fill="#F1F1F1" height="2" style="stroke:#181818;stroke-width:0.5;" width="4" x="372.8646" y="48"/><rect fill="#F1F1F1" height="2" style="stroke:#181818;stroke-width:0.5;" width="4" x="372.8646" y="52"/><text fill="#000000" font-family="sans-serif" font-size="14" lengthAdjust="spacing" textLength="119.7246" x="250.14" y="73.9951">User Input (Files)</text></g><!--entity User Input (Prompt)--><g class="entity" data-entity="User Input .Prompt." data-source-line="3" data-uid="ent0004" id="entity_User Input .Prompt."><rect fill="#F1F1F1" height="46.2969" rx="2.5" ry="2.5" style="stroke:#181818;stroke-width:0.5;" width="178.7627" x="21.62" y="41"/><rect fill="#F1F1F1" height="10" style="stroke:#181818;stroke-width:0.5;" width="15" x="180.3827" y="46"/><rect fill="#F1F1F1" height="2" style="stroke:#181818;stroke-width:0.5;" width="4" x="178.3827" y="48"/><rect fill="#F1F1F1" height="2" style="stroke:#181818;stroke-width:0.5;" width="4" x="178.3827" y="52"/><text fill="#000000" font-family="sans-serif" font-size="14" lengthAdjust="spacing" textLength="138.7627" x="36.62" y="73.9951">User Input (Prompt)</text></g><!--entity Vectorize--><g class="entity" data-entity="Vectorize" data-source-line="7" data-uid="ent0006" id="entity_Vectorize"><rect fill="#F1F1F1" height="46.2969" rx="2.5" ry="2.5" style="stroke:#181818;stroke-width:0.5;" width="105.5498" x="249.23" y="162.3"/><rect fill="#F1F1F1" height="10" style="stroke:#181818;stroke-width:0.5;" width="15" x="334.7798" y="167.3"/><rect fill="#F1F1F1" height="2" style="stroke:#181818;stroke-width:0.5;" width="4" x="332.7798" y="169.3"/><rect fill="#F1F1F1" height="2" style="stroke:#181818;stroke-width:0.5;" width="4" x="332.7798" y="173.3"/><text fill="#000000" font-family="sans-serif" font-size="14" lengthAdjust="spacing" textLength="65.5498" x="264.23" y="195.2951">Vectorize</text></g><!--entity OutputDB--><g class="entity" data-entity="OutputDB" data-source-line="11" data-uid="ent0009" id="entity_OutputDB"><rect fill="#F1F1F1" height="46.2969" rx="2.5" ry="2.5" style="stroke:#181818;stroke-width:0.5;" width="109.0156" x="247.49" y="298.59"/><rect fill="#F1F1F1" height="10" style="stroke:#181818;stroke-width:0.5;" width="15" x="336.5056" y="303.59"/><rect fill="#F1F1F1" height="2" style="stroke:#181818;stroke-width:0.5;" width="4" x="334.5056" y="305.59"/><rect fill="#F1F1F1" height="2" style="stroke:#181818;stroke-width:0.5;" width="4" x="334.5056" y="309.59"/><text fill="#000000" font-family="sans-serif" font-size="14" lengthAdjust="spacing" textLength="69.0156" x="262.49" y="331.5851">OutputDB</text></g><!--entity LLM--><g class="entity" data-entity="LLM" data-source-line="15" data-uid="ent0012" id="entity_LLM"><rect fill="#F1F1F1" height="46.2969" rx="2.5" ry="2.5" style="stroke:#181818;stroke-width:0.5;" width="67.6787" x="90.16" y="162.3"/><rect fill="#F1F1F1" height="10" style="stroke:#181818;stroke-width:0.5;" width="15" x="137.8387" y="167.3"/><rect fill="#F1F1F1" height="2" style="stroke:#181818;stroke-width:0.5;" width="4" x="135.8387" y="169.3"/><rect fill="#F1F1F1" height="2" style="stroke:#181818;stroke-width:0.5;" width="4" x="135.8387" y="173.3"/><text fill="#000000" font-family="sans-serif" font-size="14" lengthAdjust="spacing" textLength="27.6787" x="105.16" y="195.2951">LLM</text></g><!--entity Output (Result)--><g class="entity" data-entity="Output .Result." data-source-line="18" data-uid="ent0016" id="entity_Output .Result."><rect fill="#F1F1F1" height="46.2969" rx="2.5" ry="2.5" style="stroke:#181818;stroke-width:0.5;" width="147.8916" x="43.05" y="298.59"/><rect fill="#F1F1F1" height="10" style="stroke:#181818;stroke-width:0.5;" width="15" x="170.9416" y="303.59"/><rect fill="#F1F1F1" height="2" style="stroke:#181818;stroke-width:0.5;" width="4" x="168.9416" y="305.59"/><rect fill="#F1F1F1" height="2" style="stroke:#181818;stroke-width:0.5;" width="4" x="168.9416" y="309.59"/><text fill="#000000" font-family="sans-serif" font-size="14" lengthAdjust="spacing" textLength="107.8916" x="58.05" y="331.5851">Output (Result)</text></g><!--link User Input (Files) to Vectorize--><g class="link" data-entity-1="User Input .Files." data-entity-2="Vectorize" data-source-line="7" data-uid="lnk7" id="link_User Input .Files._Vectorize"><path d="M312.55,87.59 C310.23,108.92 307.3997,134.8453 305.0797,156.1453" fill="none" id="User Input (Files)-to-Vectorize" style="stroke:#181818;stroke-width:1;"/><polygon fill="#181818" points="304.43,162.11,309.381,153.596,304.9714,157.1394,301.428,152.7298,304.43,162.11" style="stroke:#181818;stroke-width:1;"/></g><!--link Vectorize to OutputDB--><g class="link" data-entity-1="Vectorize" data-entity-2="OutputDB" data-source-line="11" data-uid="lnk10" id="link_Vectorize_OutputDB"><path d="M302,208.92 C302,233.71 302,267.37 302,292.19" fill="none" id="Vectorize-to-OutputDB" style="stroke:#181818;stroke-width:1;"/><polygon fill="#181818" points="302,298.19,306,289.19,302,293.19,298,289.19,302,298.19" style="stroke:#181818;stroke-width:1;"/></g><!--link Vectorize to LLM--><g class="link" data-entity-1="Vectorize" data-entity-2="LLM" data-source-line="15" data-uid="lnk13" id="link_Vectorize_LLM"><path d="M242.87,185.44 C212.6,185.44 194.34,185.44 164.07,185.44" fill="none" id="Vectorize-LLM" style="stroke:#181818;stroke-width:1;"/><polygon fill="#181818" points="248.87,185.44,239.87,181.44,243.87,185.44,239.87,189.44,248.87,185.44" style="stroke:#181818;stroke-width:1;"/><polygon fill="#181818" points="158.07,185.44,167.07,189.44,163.07,185.44,167.07,181.44,158.07,185.44" style="stroke:#181818;stroke-width:1;"/></g><!--reverse link LLM to OutputDB--><g class="link" data-entity-1="LLM" data-entity-2="OutputDB" data-source-line="16" data-uid="lnk14" id="link_LLM_OutputDB"><path d="M163.2247,210.617 C178.4647,220.297 191.4,228.99 207,240.59 C231.59,258.88 258.13,281.54 276.89,298.09" fill="none" id="LLM-backto-OutputDB" style="stroke:#181818;stroke-width:1;"/><polygon fill="#181818" points="158.16,207.4,163.6124,215.6019,162.3806,210.0808,167.9017,208.849,158.16,207.4" style="stroke:#181818;stroke-width:1;"/></g><!--link User Input (Prompt) to LLM--><g class="link" data-entity-1="User Input .Prompt." data-entity-2="LLM" data-source-line="17" data-uid="lnk15" id="link_User Input .Prompt._LLM"><path d="M113.45,87.59 C115.77,108.92 118.6003,134.8453 120.9203,156.1453" fill="none" id="User Input (Prompt)-to-LLM" style="stroke:#181818;stroke-width:1;"/><polygon fill="#181818" points="121.57,162.11,124.572,152.7298,121.0286,157.1394,116.619,153.596,121.57,162.11" style="stroke:#181818;stroke-width:1;"/></g><!--link LLM to Output (Result)--><g class="link" data-entity-1="LLM" data-entity-2="Output .Result." data-source-line="18" data-uid="lnk17" id="link_LLM_Output .Result."><path d="M122.83,208.92 C121.54,233.71 119.7814,267.3781 118.4914,292.1981" fill="none" id="LLM-to-Output (Result)" style="stroke:#181818;stroke-width:1;"/><polygon fill="#181818" points="118.18,298.19,122.6417,289.4097,118.4395,293.1967,114.6525,288.9945,118.18,298.19" style="stroke:#181818;stroke-width:1;"/></g><!--SRC=[AqXCpavCJrLG2YrEBLAgvb9GY0Qn53pp2afB53JSCdDIYpLZqOK3Yl9p2qg0uhLSN0Km4y9IdVEL570PeQ2Rab-Ufskd41sMcboINvHPbGhMdf9OafYKM0pM3n9NS84AG8r2g5RG1UdsBoq16klYX6gtZu-lhaT-SGcc9XlTeipqZ1AGLg0Yi4z0D51S5zam71w4s8cY4SaL2Xf1gSMbEU200000]--></g></svg>